<mxfile host="Electron" modified="2024-02-26T11:29:41.647Z" agent="Mozilla/5.0 (Macintosh; Intel Mac OS X 10_15_7) AppleWebKit/537.36 (KHTML, like Gecko) draw.io/22.1.21 Chrome/120.0.6099.109 Electron/28.1.0 Safari/537.36" etag="QANEvN0nTxHrFFTkInTG" version="22.1.21" type="device">
  <diagram name="Pagina-1" id="_DiV_Fw6A8L6jA1ZNPRb">
    <mxGraphModel dx="1822" dy="606" grid="1" gridSize="10" guides="1" tooltips="1" connect="1" arrows="1" fold="1" page="1" pageScale="1" pageWidth="827" pageHeight="1169" math="0" shadow="0">
      <root>
        <mxCell id="0" />
        <mxCell id="1" parent="0" />
        <mxCell id="usZiOwvEuIuYOVztx2U2-1" value="Server" style="rounded=0;whiteSpace=wrap;html=1;fillColor=#ffe6cc;strokeColor=#d79b00;" parent="1" vertex="1">
          <mxGeometry x="150" y="240" width="120" height="60" as="geometry" />
        </mxCell>
        <mxCell id="usZiOwvEuIuYOVztx2U2-2" value="Scherm" style="rounded=0;whiteSpace=wrap;html=1;fillColor=#f5f5f5;fontColor=#333333;strokeColor=#666666;" parent="1" vertex="1">
          <mxGeometry x="550" y="225" width="120" height="60" as="geometry" />
        </mxCell>
        <mxCell id="usZiOwvEuIuYOVztx2U2-3" value="Microcontroller" style="whiteSpace=wrap;html=1;fillColor=#f8cecc;strokeColor=#b85450;" parent="1" vertex="1">
          <mxGeometry x="370" y="240" width="120" height="60" as="geometry" />
        </mxCell>
        <mxCell id="usZiOwvEuIuYOVztx2U2-4" value="Bonprinter" style="whiteSpace=wrap;html=1;fillColor=#f5f5f5;strokeColor=#666666;fontColor=#333333;" parent="1" vertex="1">
          <mxGeometry x="340" y="80" width="120" height="60" as="geometry" />
        </mxCell>
        <mxCell id="usZiOwvEuIuYOVztx2U2-5" value="RFID lezer" style="whiteSpace=wrap;html=1;fillColor=#f5f5f5;fontColor=#333333;strokeColor=#666666;" parent="1" vertex="1">
          <mxGeometry x="525" y="150" width="120" height="60" as="geometry" />
        </mxCell>
        <mxCell id="usZiOwvEuIuYOVztx2U2-6" value="Geld dispenser" style="whiteSpace=wrap;html=1;fillColor=#f5f5f5;fontColor=#333333;strokeColor=#666666;" parent="1" vertex="1">
          <mxGeometry x="260" y="403" width="120" height="60" as="geometry" />
        </mxCell>
        <mxCell id="usZiOwvEuIuYOVztx2U2-7" value="Keypad" style="whiteSpace=wrap;html=1;fillColor=#f5f5f5;fontColor=#333333;strokeColor=#666666;" parent="1" vertex="1">
          <mxGeometry x="400" y="360" width="120" height="60" as="geometry" />
        </mxCell>
        <mxCell id="usZiOwvEuIuYOVztx2U2-8" value="" style="endArrow=classic;html=1;rounded=0;entryX=0.458;entryY=1.011;entryDx=0;entryDy=0;exitX=0.203;exitY=0.026;exitDx=0;exitDy=0;entryPerimeter=0;exitPerimeter=0;" parent="1" source="usZiOwvEuIuYOVztx2U2-3" target="usZiOwvEuIuYOVztx2U2-4" edge="1">
          <mxGeometry width="50" height="50" relative="1" as="geometry">
            <mxPoint x="460" y="240" as="sourcePoint" />
            <mxPoint x="510" y="190" as="targetPoint" />
          </mxGeometry>
        </mxCell>
        <mxCell id="usZiOwvEuIuYOVztx2U2-10" value="" style="endArrow=classic;html=1;rounded=0;entryX=0;entryY=0.5;entryDx=0;entryDy=0;exitX=1;exitY=0.25;exitDx=0;exitDy=0;" parent="1" source="usZiOwvEuIuYOVztx2U2-3" target="usZiOwvEuIuYOVztx2U2-2" edge="1">
          <mxGeometry width="50" height="50" relative="1" as="geometry">
            <mxPoint x="760" y="470" as="sourcePoint" />
            <mxPoint x="492" y="159" as="targetPoint" />
          </mxGeometry>
        </mxCell>
        <mxCell id="usZiOwvEuIuYOVztx2U2-13" value="" style="endArrow=classic;html=1;rounded=0;exitX=0;exitY=0.5;exitDx=0;exitDy=0;entryX=0.5;entryY=0;entryDx=0;entryDy=0;" parent="1" source="usZiOwvEuIuYOVztx2U2-5" target="usZiOwvEuIuYOVztx2U2-3" edge="1">
          <mxGeometry width="50" height="50" relative="1" as="geometry">
            <mxPoint x="599" y="250" as="sourcePoint" />
            <mxPoint x="490" y="255" as="targetPoint" />
          </mxGeometry>
        </mxCell>
        <mxCell id="usZiOwvEuIuYOVztx2U2-15" value="" style="endArrow=classic;html=1;rounded=0;entryX=0;entryY=0.75;entryDx=0;entryDy=0;exitX=1;exitY=0.75;exitDx=0;exitDy=0;" parent="1" edge="1">
          <mxGeometry width="50" height="50" relative="1" as="geometry">
            <mxPoint x="270" y="275" as="sourcePoint" />
            <mxPoint x="370" y="275" as="targetPoint" />
          </mxGeometry>
        </mxCell>
        <mxCell id="usZiOwvEuIuYOVztx2U2-16" value="" style="endArrow=classic;html=1;rounded=0;exitX=0;exitY=0.25;exitDx=0;exitDy=0;entryX=1;entryY=0.25;entryDx=0;entryDy=0;" parent="1" edge="1">
          <mxGeometry width="50" height="50" relative="1" as="geometry">
            <mxPoint x="370" y="258" as="sourcePoint" />
            <mxPoint x="270" y="258" as="targetPoint" />
          </mxGeometry>
        </mxCell>
        <mxCell id="usZiOwvEuIuYOVztx2U2-18" value="" style="endArrow=classic;html=1;rounded=0;exitX=0.25;exitY=1;exitDx=0;exitDy=0;entryX=0.5;entryY=0;entryDx=0;entryDy=0;" parent="1" source="usZiOwvEuIuYOVztx2U2-3" target="usZiOwvEuIuYOVztx2U2-6" edge="1">
          <mxGeometry width="50" height="50" relative="1" as="geometry">
            <mxPoint x="374" y="300" as="sourcePoint" />
            <mxPoint x="300" y="381" as="targetPoint" />
          </mxGeometry>
        </mxCell>
        <mxCell id="usZiOwvEuIuYOVztx2U2-19" value="" style="endArrow=classic;html=1;rounded=0;entryX=0.5;entryY=1;entryDx=0;entryDy=0;exitX=0.25;exitY=0;exitDx=0;exitDy=0;" parent="1" source="usZiOwvEuIuYOVztx2U2-7" target="usZiOwvEuIuYOVztx2U2-3" edge="1">
          <mxGeometry width="50" height="50" relative="1" as="geometry">
            <mxPoint x="532" y="380" as="sourcePoint" />
            <mxPoint x="610" y="300" as="targetPoint" />
          </mxGeometry>
        </mxCell>
        <mxCell id="usZiOwvEuIuYOVztx2U2-21" value="API, requests" style="text;html=1;align=center;verticalAlign=middle;resizable=0;points=[];autosize=1;strokeColor=none;fillColor=none;" parent="1" vertex="1">
          <mxGeometry x="270" y="228" width="100" height="30" as="geometry" />
        </mxCell>
        <mxCell id="usZiOwvEuIuYOVztx2U2-23" value="Data" style="text;html=1;align=center;verticalAlign=middle;resizable=0;points=[];autosize=1;strokeColor=none;fillColor=none;" parent="1" vertex="1">
          <mxGeometry x="290" y="270" width="50" height="30" as="geometry" />
        </mxCell>
        <mxCell id="usZiOwvEuIuYOVztx2U2-27" value="Pinpas info" style="text;html=1;align=center;verticalAlign=middle;resizable=0;points=[];autosize=1;strokeColor=none;fillColor=none;" parent="1" vertex="1">
          <mxGeometry x="440" y="155" width="80" height="30" as="geometry" />
        </mxCell>
        <mxCell id="usZiOwvEuIuYOVztx2U2-29" value="Pincode" style="text;html=1;align=center;verticalAlign=middle;resizable=0;points=[];autosize=1;strokeColor=none;fillColor=none;rotation=0;" parent="1" vertex="1">
          <mxGeometry x="420" y="320" width="70" height="30" as="geometry" />
        </mxCell>
        <mxCell id="usZiOwvEuIuYOVztx2U2-30" value="Data" style="text;html=1;align=center;verticalAlign=middle;resizable=0;points=[];autosize=1;strokeColor=none;fillColor=none;" parent="1" vertex="1">
          <mxGeometry x="310" y="330" width="50" height="30" as="geometry" />
        </mxCell>
        <mxCell id="usZiOwvEuIuYOVztx2U2-31" value="Database" style="rounded=0;whiteSpace=wrap;html=1;fillColor=#ffe6cc;strokeColor=#d79b00;" parent="1" vertex="1">
          <mxGeometry x="-60" y="240" width="120" height="60" as="geometry" />
        </mxCell>
        <mxCell id="usZiOwvEuIuYOVztx2U2-32" value="" style="endArrow=classic;html=1;rounded=0;entryX=0;entryY=0.75;entryDx=0;entryDy=0;" parent="1" edge="1">
          <mxGeometry width="50" height="50" relative="1" as="geometry">
            <mxPoint x="60" y="280" as="sourcePoint" />
            <mxPoint x="150" y="280" as="targetPoint" />
          </mxGeometry>
        </mxCell>
        <mxCell id="usZiOwvEuIuYOVztx2U2-33" value="" style="endArrow=classic;html=1;rounded=0;exitX=0;exitY=0.25;exitDx=0;exitDy=0;entryX=1;entryY=0.25;entryDx=0;entryDy=0;" parent="1" edge="1">
          <mxGeometry width="50" height="50" relative="1" as="geometry">
            <mxPoint x="150" y="258" as="sourcePoint" />
            <mxPoint x="60" y="258" as="targetPoint" />
          </mxGeometry>
        </mxCell>
        <mxCell id="usZiOwvEuIuYOVztx2U2-34" value="Request" style="text;html=1;align=center;verticalAlign=middle;resizable=0;points=[];autosize=1;strokeColor=none;fillColor=none;" parent="1" vertex="1">
          <mxGeometry x="70" y="228" width="70" height="30" as="geometry" />
        </mxCell>
        <mxCell id="usZiOwvEuIuYOVztx2U2-35" value="Data" style="text;html=1;align=center;verticalAlign=middle;resizable=0;points=[];autosize=1;strokeColor=none;fillColor=none;" parent="1" vertex="1">
          <mxGeometry x="80" y="280" width="50" height="30" as="geometry" />
        </mxCell>
        <mxCell id="usZiOwvEuIuYOVztx2U2-36" value="Knoppen" style="rounded=0;whiteSpace=wrap;html=1;fillColor=#f5f5f5;fontColor=#333333;strokeColor=#666666;" parent="1" vertex="1">
          <mxGeometry x="540" y="300" width="120" height="60" as="geometry" />
        </mxCell>
        <mxCell id="usZiOwvEuIuYOVztx2U2-37" value="" style="endArrow=classic;html=1;rounded=0;exitX=0;exitY=0.25;exitDx=0;exitDy=0;entryX=1;entryY=1;entryDx=0;entryDy=0;" parent="1" source="usZiOwvEuIuYOVztx2U2-36" target="usZiOwvEuIuYOVztx2U2-3" edge="1">
          <mxGeometry width="50" height="50" relative="1" as="geometry">
            <mxPoint x="335" y="157.2" as="sourcePoint" />
            <mxPoint x="680" y="541.5384615384615" as="targetPoint" />
          </mxGeometry>
        </mxCell>
        <mxCell id="usZiOwvEuIuYOVztx2U2-39" value="Gebruiker" style="rounded=0;whiteSpace=wrap;html=1;fillColor=#dae8fc;strokeColor=#6c8ebf;" parent="1" vertex="1">
          <mxGeometry x="780" y="240" width="120" height="60" as="geometry" />
        </mxCell>
        <mxCell id="usZiOwvEuIuYOVztx2U2-40" value="" style="endArrow=classic;html=1;rounded=0;exitX=1;exitY=0.75;exitDx=0;exitDy=0;entryX=0;entryY=0.5;entryDx=0;entryDy=0;" parent="1" source="usZiOwvEuIuYOVztx2U2-2" target="usZiOwvEuIuYOVztx2U2-39" edge="1">
          <mxGeometry width="50" height="50" relative="1" as="geometry">
            <mxPoint x="710" y="600" as="sourcePoint" />
            <mxPoint x="710" y="340" as="targetPoint" />
          </mxGeometry>
        </mxCell>
        <mxCell id="usZiOwvEuIuYOVztx2U2-41" value="" style="endArrow=classic;html=1;rounded=0;exitX=0;exitY=0.75;exitDx=0;exitDy=0;" parent="1" source="usZiOwvEuIuYOVztx2U2-39" target="usZiOwvEuIuYOVztx2U2-36" edge="1">
          <mxGeometry width="50" height="50" relative="1" as="geometry">
            <mxPoint x="640" y="410" as="sourcePoint" />
            <mxPoint x="600" y="380" as="targetPoint" />
          </mxGeometry>
        </mxCell>
        <mxCell id="usZiOwvEuIuYOVztx2U2-42" value="Input" style="text;html=1;align=center;verticalAlign=middle;resizable=0;points=[];autosize=1;strokeColor=none;fillColor=none;" parent="1" vertex="1">
          <mxGeometry x="490" y="280" width="50" height="30" as="geometry" />
        </mxCell>
        <mxCell id="usZiOwvEuIuYOVztx2U2-43" value="Data" style="text;html=1;align=center;verticalAlign=middle;resizable=0;points=[];autosize=1;strokeColor=none;fillColor=none;" parent="1" vertex="1">
          <mxGeometry x="389" y="180" width="50" height="30" as="geometry" />
        </mxCell>
        <mxCell id="usZiOwvEuIuYOVztx2U2-45" value="Visuele feedback" style="text;html=1;align=center;verticalAlign=middle;resizable=0;points=[];autosize=1;strokeColor=none;fillColor=none;" parent="1" vertex="1">
          <mxGeometry x="670" y="240" width="110" height="30" as="geometry" />
        </mxCell>
        <mxCell id="usZiOwvEuIuYOVztx2U2-46" value="Input" style="text;html=1;align=center;verticalAlign=middle;resizable=0;points=[];autosize=1;strokeColor=none;fillColor=none;" parent="1" vertex="1">
          <mxGeometry x="650" y="310" width="50" height="30" as="geometry" />
        </mxCell>
        <mxCell id="usZiOwvEuIuYOVztx2U2-47" value="" style="endArrow=classic;html=1;rounded=0;exitX=1;exitY=0.75;exitDx=0;exitDy=0;entryX=0.75;entryY=1;entryDx=0;entryDy=0;" parent="1" source="usZiOwvEuIuYOVztx2U2-6" target="usZiOwvEuIuYOVztx2U2-39" edge="1">
          <mxGeometry width="50" height="50" relative="1" as="geometry">
            <mxPoint x="540" y="310" as="sourcePoint" />
            <mxPoint x="590" y="260" as="targetPoint" />
            <Array as="points">
              <mxPoint x="640" y="448" />
            </Array>
          </mxGeometry>
        </mxCell>
        <mxCell id="usZiOwvEuIuYOVztx2U2-48" value="" style="endArrow=classic;html=1;rounded=0;entryX=1;entryY=0.5;entryDx=0;entryDy=0;exitX=0.25;exitY=1;exitDx=0;exitDy=0;" parent="1" source="usZiOwvEuIuYOVztx2U2-39" target="usZiOwvEuIuYOVztx2U2-7" edge="1">
          <mxGeometry width="50" height="50" relative="1" as="geometry">
            <mxPoint x="810" y="310" as="sourcePoint" />
            <mxPoint x="800" y="320" as="targetPoint" />
            <Array as="points">
              <mxPoint x="640" y="390" />
            </Array>
          </mxGeometry>
        </mxCell>
        <mxCell id="usZiOwvEuIuYOVztx2U2-49" value="" style="endArrow=classic;html=1;rounded=0;entryX=1;entryY=0.5;entryDx=0;entryDy=0;exitX=0.25;exitY=0;exitDx=0;exitDy=0;" parent="1" source="usZiOwvEuIuYOVztx2U2-39" target="usZiOwvEuIuYOVztx2U2-5" edge="1">
          <mxGeometry width="50" height="50" relative="1" as="geometry">
            <mxPoint x="540" y="310" as="sourcePoint" />
            <mxPoint x="590" y="260" as="targetPoint" />
          </mxGeometry>
        </mxCell>
        <mxCell id="usZiOwvEuIuYOVztx2U2-50" value="Geld" style="text;html=1;align=center;verticalAlign=middle;resizable=0;points=[];autosize=1;strokeColor=none;fillColor=none;" parent="1" vertex="1">
          <mxGeometry x="525" y="418" width="50" height="30" as="geometry" />
        </mxCell>
        <mxCell id="usZiOwvEuIuYOVztx2U2-51" value="Pincode" style="text;html=1;align=center;verticalAlign=middle;resizable=0;points=[];autosize=1;strokeColor=none;fillColor=none;" parent="1" vertex="1">
          <mxGeometry x="550" y="388" width="70" height="30" as="geometry" />
        </mxCell>
        <mxCell id="usZiOwvEuIuYOVztx2U2-52" value="Pinpas" style="text;html=1;align=center;verticalAlign=middle;resizable=0;points=[];autosize=1;strokeColor=none;fillColor=none;" parent="1" vertex="1">
          <mxGeometry x="710" y="180" width="60" height="30" as="geometry" />
        </mxCell>
        <mxCell id="usZiOwvEuIuYOVztx2U2-53" value="" style="endArrow=classic;html=1;rounded=0;entryX=0.71;entryY=0.02;entryDx=0;entryDy=0;entryPerimeter=0;exitX=1;exitY=0.5;exitDx=0;exitDy=0;" parent="1" source="usZiOwvEuIuYOVztx2U2-4" target="usZiOwvEuIuYOVztx2U2-39" edge="1">
          <mxGeometry width="50" height="50" relative="1" as="geometry">
            <mxPoint x="540" y="310" as="sourcePoint" />
            <mxPoint x="590" y="260" as="targetPoint" />
            <Array as="points">
              <mxPoint x="720" y="110" />
            </Array>
          </mxGeometry>
        </mxCell>
        <mxCell id="usZiOwvEuIuYOVztx2U2-54" value="Bon" style="text;html=1;align=center;verticalAlign=middle;resizable=0;points=[];autosize=1;strokeColor=none;fillColor=none;" parent="1" vertex="1">
          <mxGeometry x="690" y="110" width="40" height="30" as="geometry" />
        </mxCell>
        <mxCell id="usZiOwvEuIuYOVztx2U2-56" value="Admin" style="rounded=0;whiteSpace=wrap;html=1;fillColor=#dae8fc;strokeColor=#6c8ebf;" parent="1" vertex="1">
          <mxGeometry x="70" y="403" width="120" height="60" as="geometry" />
        </mxCell>
        <mxCell id="usZiOwvEuIuYOVztx2U2-58" value="" style="endArrow=classic;html=1;rounded=0;exitX=1;exitY=0.5;exitDx=0;exitDy=0;entryX=0;entryY=0.5;entryDx=0;entryDy=0;" parent="1" source="usZiOwvEuIuYOVztx2U2-56" target="usZiOwvEuIuYOVztx2U2-6" edge="1">
          <mxGeometry width="50" height="50" relative="1" as="geometry">
            <mxPoint x="190" y="480" as="sourcePoint" />
            <mxPoint x="240" y="430" as="targetPoint" />
          </mxGeometry>
        </mxCell>
        <mxCell id="usZiOwvEuIuYOVztx2U2-59" value="Geld" style="edgeLabel;html=1;align=center;verticalAlign=middle;resizable=0;points=[];" parent="usZiOwvEuIuYOVztx2U2-58" vertex="1" connectable="0">
          <mxGeometry x="-0.1432" y="10" relative="1" as="geometry">
            <mxPoint as="offset" />
          </mxGeometry>
        </mxCell>
        <mxCell id="usZiOwvEuIuYOVztx2U2-60" value="" style="endArrow=classic;html=1;rounded=0;entryX=0.5;entryY=1;entryDx=0;entryDy=0;exitX=0.75;exitY=0;exitDx=0;exitDy=0;" parent="1" source="usZiOwvEuIuYOVztx2U2-56" target="usZiOwvEuIuYOVztx2U2-1" edge="1">
          <mxGeometry width="50" height="50" relative="1" as="geometry">
            <mxPoint x="160" y="403" as="sourcePoint" />
            <mxPoint x="210" y="353" as="targetPoint" />
          </mxGeometry>
        </mxCell>
        <mxCell id="usZiOwvEuIuYOVztx2U2-61" value="" style="endArrow=classic;html=1;rounded=0;exitX=0.25;exitY=1;exitDx=0;exitDy=0;entryX=0.5;entryY=0;entryDx=0;entryDy=0;" parent="1" source="usZiOwvEuIuYOVztx2U2-1" target="usZiOwvEuIuYOVztx2U2-56" edge="1">
          <mxGeometry width="50" height="50" relative="1" as="geometry">
            <mxPoint x="100" y="390" as="sourcePoint" />
            <mxPoint x="150" y="340" as="targetPoint" />
          </mxGeometry>
        </mxCell>
        <mxCell id="usZiOwvEuIuYOVztx2U2-62" value="Data" style="text;html=1;align=center;verticalAlign=middle;resizable=0;points=[];autosize=1;strokeColor=none;fillColor=none;" parent="1" vertex="1">
          <mxGeometry x="105" y="338" width="50" height="30" as="geometry" />
        </mxCell>
        <mxCell id="usZiOwvEuIuYOVztx2U2-63" value="Data" style="text;html=1;align=center;verticalAlign=middle;resizable=0;points=[];autosize=1;strokeColor=none;fillColor=none;" parent="1" vertex="1">
          <mxGeometry x="185" y="340" width="50" height="30" as="geometry" />
        </mxCell>
      </root>
    </mxGraphModel>
  </diagram>
</mxfile>
